<svg viewBox="0 0 800 800" xmlns="http://www.w3.org/2000/svg"><path d="M639.5433995269007,302.2514257378011 L639.729339501182,219.70192588578504 M159.28144560031714,579.5307941188498 L159.09355264091278,496.7651316140238 M639.5433995269007,302.2514257378011 L667.7655314142453,320.6309789854187 M667.7655314142453,320.6309789854187 L691.7939811692743,340.91127015699277 M691.7939811692743,340.91127015699277 L711.2471421662246,362.7764195012028 M711.2471421662246,362.7764195012028 L725.8139464494413,385.88507676085715 M725.8139464494413,385.88507676085715 L735.2589908224002,409.8755179626196 M735.2589908224002,409.8755179626196 L739.4266576022169,434.37127976064045 M739.4266576022169,434.37127976064045 L738.2439990681696,458.9868489230603 M738.2439990681696,458.9868489230603 L731.7222417228654,483.3337904806936 M731.7222417228654,483.3337904806936 L719.9572210307172,507.0268586514493 M719.9572210307172,507.0268586514493 L703.1281675121004,529.6901316474386 M703.1281675121004,529.6901316474386 L681.4953525418066,550.963074090102 M681.4953525418066,550.963074090102 L655.3963642651856,570.506482767547 M655.3963642651856,570.506482767547 L625.2408767753939,588.0079779354479 M625.2408767753939,588.0079779354479 L591.5044214601753,603.1872579284235 M591.5044214601753,603.1872579284235 L554.7208943915675,615.8007903941574 M554.7208943915675,615.8007903941574 L515.4739085217138,625.6458535803276 M515.4739085217138,625.6458535803276 L474.3875280635426,632.564052881901 M474.3875280635426,632.564052881901 L432.1159918281716,636.4439868182839 M432.1159918281716,636.4439868182839 L389.33300991719625,637.223107785963 M389.33300991719625,637.223107785963 L346.7207244010616,634.888879334549 M346.7207244010616,634.888879334549 L304.95852781890284,629.4789054039704 M304.95852781890284,629.4789054039704 L264.711705804231,621.0803446195288 M264.711705804231,621.0803446195288 L226.6207446015671,609.8284099354735 M226.6207446015671,609.8284099354735 L191.29068894685196,595.9040287179299 M191.29068894685196,595.9040287179299 L159.28144560031714,579.5307941188498 M639.729339501182,219.70192588578504 L667.9734539596977,238.06708101695554 M667.9734539596977,238.06708101695554 L692.0206515967955,258.3314965629106 M692.0206515967955,258.3314965629106 L711.4890260086863,280.17954313667104 M711.4890260086863,280.17954313667104 L726.067262679826,303.2701401864651 M726.067262679826,303.2701401864651 L735.5197693327457,327.24184858571283 M735.5197693327457,327.24184858571283 L739.6908002514704,351.71850040263223 M739.6908002514704,351.71850040263223 L738.5073434037711,376.3148838268417 M738.5073434037711,376.3148838268417 L731.9806263446915,400.64286648098823 M731.9806263446915,400.64286648098823 L720.2065517768385,424.31750159112124 M720.2065517768385,424.31750159112124 L703.3644831651482,446.9631580904129 M703.3644831651482,446.9631580904129 L681.7148891209135,468.21957845223005 M681.7148891209135,468.21957845223005 L655.5956167630056,487.74782001291186 M655.5956167630056,487.74782001291186 L625.4166570691737,505.23574223584234 M625.4166570691737,505.23574223584234 L591.6539115075543,520.403257499542 M591.6539115075543,520.403257499542 L554.8416936037991,533.0070189587306 M554.8416936037991,533.0070189587306 L515.5640742903047,542.8444589574318 M515.5640742903047,542.8444589574318 L474.4456088428875,549.7573030871681 M474.4456088428875,549.7573030871681 L432.14105188314244,553.6342342960804 M432.14105188314244,553.6342342960804 L389.3246453223912,554.4127523458598 M389.3246453223912,554.4127523458598 L346.6790699756015,552.0803302757433 M346.6790699756015,552.0803302757433 L304.8842548619298,546.6745435566984 M304.8842548619298,546.6745435566984 L264.6060105016799,538.2824847890307 M264.6060105016799,538.2824847890307 L226.48532766261988,527.0392643921209 M226.48532766261988,527.0392643921209 L191.1277265769982,513.1256723270077 M191.1277265769982,513.1256723270077 L159.09355264091278,496.7651316140238 M159.28144560031714,579.5307941188498 L131.09871304706417,560.971186657881 M131.09871304706417,560.971186657881 L107.18598122055278,540.5221552760356 M107.18598122055278,540.5221552760356 L87.91758531928508,518.5101822179861 M87.91758531928508,518.5101822179861 L73.59298386446591,495.28584289077446 M73.59298386446591,495.28584289077446 L64.43236139996952,471.2181298749563 M64.43236139996952,471.2181298749563 L60.573465025002065,446.68836150817117 M60.573465025002065,446.68836150817117 L62.06984125145419,422.0841877697249 M62.06984125145419,422.0841877697249 L68.89055197306936,397.79332760130734 M68.89055197306936,397.79332760130734 L80.92097790057255,374.1975031481581 M80.92097790057255,374.1975031481581 L97.96521225624804,351.666526254305 M97.96521225624804,351.666526254305 L119.74946273722793,330.55261974243314 M119.74946273722793,330.55261974243314 L145.92662619080156,311.18499440230136 M145.92662619080156,311.18499440230136 L176.08211580684844,293.86498481519084 M176.08211580684844,293.86498481519084 L209.74039967161642,278.8614892170559 M209.74039967161642,278.8614892170559 L246.37249350814798,266.4069949010424 M246.37249350814798,266.4069949010424 L285.40429880795904,256.6942301663963 M285.40429880795904,256.6942301663963 L326.225272220144,249.8732767194556 M326.225272220144,249.8732767194556 L368.1978516388529,246.04942573103645 M368.1978516388529,246.04942573103645 L410.66711163844616,245.28170042186116 M410.66711163844616,245.28170042186116 L452.97062279584634,247.58192149743655 M452.97062279584634,247.58192149743655 L494.4483947588928,252.91462166171442 M494.4483947588928,252.91462166171442 L534.4530131483266,261.19749790100497 M534.4530131483266,261.19749790100497 L572.3592105694051,272.30260654678443 M572.3592105694051,272.30260654678443 L607.5735513955478,286.0582459493316 M607.5735513955478,286.0582459493316 L639.5433995269007,302.2514257378011 M159.09355264091278,496.7651316140238 L130.88889887954986,478.2199225935979 M130.88889887954986,478.2199225935979 L106.95759939050936,457.7867671419651 M106.95759939050936,457.7867671419651 L87.67427782532422,435.7918971200767 M87.67427782532422,435.7918971200767 L73.33862118450139,412.5856182125243 M73.33862118450139,412.5856182125243 L64.17097939174369,388.53663813957814 M64.17097939174369,388.53663813957814 L60.309199748529636,364.02597981572 M60.309199748529636,364.02597981572 L61.806862863909316,339.4409917947629 M61.806862863909316,339.4409917947629 L68.63299888148981,315.16909042791076 M68.63299888148981,315.16909042791076 L80.6728920208576,291.59169885887343 M80.6728920208576,291.59169885887343 L97.73047658876851,269.0783382220278 M97.73047658876851,269.0783382220278 L119.53174198853918,247.98095350354507 M119.53174198853918,247.98095350354507 L145.72931127498916,228.6284949633116 M145.72931127498916,228.6284949633116 L175.90827310170414,211.32205799497868 M175.90827310170414,211.32205799497868 L209.5927254729001,196.33032681109526 M209.5927254729001,196.33032681109526 L246.2532743068316,183.88560321739405 M246.2532743068316,183.88560321739405 L285.31537793195395,174.18046143433867 M285.31537793195395,174.18046143433867 L326.16802299158076,167.36486298618024 M326.16802299158076,167.36486298618024 L368.17315754174984,163.54401462555495 M368.17315754174984,163.54401462555495 L410.6753536026919,162.77689221403705 M410.6753536026919,162.77689221403705 L453.01167370776056,165.07530696873408 M453.01167370776056,165.07530696873408 L494.5216212421709,170.403820058893 M494.5216212421709,170.403820058893 L534.5572847727797,178.6801944874569 M534.5572847727797,178.6801944874569 L572.4929160833274,189.7765891081702 M572.4929160833274,189.7765891081702 L607.7346221305004,203.52143966026605 M607.7346221305004,203.52143966026605 L639.729339501182,219.70192588578504 M220.8713276938421,543.9718591127958 L220.73159433918525,461.23379188734 M578.5121221017241,337.48785018821343 L578.6507724359044,254.9107556380165 M220.8713276938421,543.9718591127958 L196.23248887786207,527.372036231391 M196.23248887786207,527.372036231391 L176.1684682764387,508.8407638147761 M176.1684682764387,508.8407638147761 L161.1244690767198,488.7955656634747 M161.1244690767198,488.7955656634747 L151.43180991516468,467.68714592917786 M151.43180991516468,467.68714592917786 L147.30102026020012,445.98899293553086 M147.30102026020012,445.98899293553086 L148.81761884402812,424.186690080064 M148.81761884402812,424.186690080064 L155.94088264277764,402.76693124213404 M155.94088264277764,402.76693124213404 L168.50527073751678,382.2067275441716 M168.50527073751678,382.2067275441716 L186.22476773809734,362.9628716036294 M186.22476773809734,362.9628716036294 L208.69971183607927,345.4619512577859 M208.69971183607927,345.4619512577859 L235.4260423470531,330.09110551138406 M235.4260423470531,330.09110551138406 L265.8067615461057,317.1897297280227 M265.8067615461057,317.1897297280227 L299.1652696080305,307.04224231832114 M299.1652696080305,307.04224231832114 L334.7602668398807,299.8720488934496 M334.7602668398807,299.8720488934496 L371.80198177889247,295.8368501186152 M371.80198177889247,295.8368501186152 L409.46934710258034,295.02535521933135 M409.46934710258034,295.02535521933135 L446.9277992210192,297.4553818268531 M446.9277992210192,297.4553818268531 L483.34723458323083,303.0735388062921 M483.34723458323083,303.0735388062921 L517.9200709797517,311.75629603381094 M517.9200709797517,311.75629603381094 L549.8786559981552,323.3126010932399 M549.8786559981552,323.3126010932399 L578.5121221017241,337.48785018821343 M220.73159433918525,461.23379188734 L196.07358930797028,444.6468638732967 M196.07358930797028,444.6468638732967 L175.9939865126561,426.1299962251912 M175.9939865126561,426.1299962251912 L160.93833250232885,406.10039097778986 M160.93833250232885,406.10039097778986 L151.23819886560156,385.00840393896686 M151.23819886560156,385.00840393896686 L147.10427268498387,363.3271563482503 M147.10427268498387,363.3271563482503 L148.62213224362546,341.5418539335201 M148.62213224362546,341.5418539335201 L155.7510156731556,320.1388108076954 M155.7510156731556,320.1388108076954 L168.32524655693422,299.5946646791597 M168.32524655693422,299.5946646791597 L186.05858132116782,280.3658494577652 M186.05858132116782,280.3658494577652 L208.55104309005412,262.87861699783844 M208.55104309005412,262.87861699783844 L235.29817677251418,247.51980055677342 M235.29817677251418,247.51980055677342 L265.7025199950125,234.6285268015207 M265.7025199950125,234.6285268015207 L299.08694841240964,224.48898849789046 M299.08694841240964,224.48898849789046 L334.70958934819237,217.32441371369802 M334.70958934819237,217.32441371369802 L371.7800621664812,213.29237762636583 M371.7800621664812,213.29237762636583 L409.4766670601163,212.48151881402612 M409.4766670601163,212.48151881402612 L446.96419791541825,214.9096407127847 M446.96419791541825,214.9096407127847 L483.41191197284417,220.52339471849442 M483.41191197284417,220.52339471849442 L518.0116045787047,229.19934905084395 M518.0116045787047,229.19934905084395 L549.9950306485259,240.7466032314281 M549.9950306485259,240.7466032314281 L578.6507724359044,254.9107556380165 M578.5121221017241,337.48785018821343 L603.1818569488314,353.9693295010106 M603.1818569488314,353.9693295010106 L623.3358184564836,372.3927739947803 M623.3358184564836,372.3927739947803 L638.5208119497267,392.35024063134193 M638.5208119497267,392.35024063134193 L648.3929906281887,413.3988205568494 M648.3929906281887,413.3988205568494 L652.725874153763,435.0703423425977 M652.725874153763,435.0703423425977 L651.4159868836523,456.8815888564307 M651.4159868836523,456.8815888564307 L644.4856849689961,478.3450715477803 M644.4856849689961,478.3450715477803 L632.0833639696937,498.97989433444275 M632.0833639696937,498.97989433444275 L614.4806388980278,518.3226344669322 M614.4806388980278,518.3226344669322 L592.0667957396968,535.9379178948736 M592.0667957396968,535.9379178948736 L565.3404660037143,551.4284440533727 M565.3404660037143,551.4284440533727 L534.8986471456665,564.4441834458862 M534.8986471456665,564.4441834458862 L501.4233677210988,574.6905558286318 M501.4233677210988,574.6905558286318 L465.666303048908,581.9353691622168 M465.666303048908,581.9353691622168 L428.4316250895856,586.0142924295243 M428.4316250895856,586.0142924295243 L390.5575469195104,586.8347310830123 M390.5575469195104,586.8347310830123 L352.89699953397553,584.3780729418371 M352.89699953397553,584.3780729418371 L316.2980438798662,578.7000753789112 M316.2980438798662,578.7000753789112 L281.58421330565125,569.9295857687802 M281.58421330565125,569.9295857687802 L249.53568834741765,558.2654519736105 M249.53568834741765,558.2654519736105 L220.8713276938421,543.9718591127958 M578.6507724359044,254.9107556380165 L603.3397216162057,271.3793402974817 M603.3397216162057,271.3793402974817 L623.5094053905048,289.7883802181112 M623.5094053905048,289.7883802181112 L638.7062732758789,309.73025410998156 M638.7062732758789,309.73025410998156 L648.5862060086818,330.7624014487377 M648.5862060086818,330.7624014487377 L652.9225407953986,352.41701787997533 M652.9225407953986,352.41701787997533 L651.611714476963,374.2112639368084 M651.611714476963,374.2112639368084 L644.6760934452625,395.6580308365781 M644.6760934452625,395.6580308365781 L632.2641820564049,416.2767959183122 M632.2641820564049,416.2767959183122 L614.6478010795784,435.60449515234046 M614.6478010795784,435.60449515234046 L592.2165354086103,453.2060904873405 M592.2165354086103,453.2060904873405 L565.4694025035574,468.68458712426326 M565.4694025035574,468.68458712426326 L535.0038644677886,481.6902242824274 M535.0038644677886,481.6902242824274 L501.50248283102144,491.9286473810843 M501.50248283102144,491.9286473810843 L465.7175220543385,499.1678419398458 M465.7175220543385,499.1678419398458 L428.453785698461,503.24360244112336 M428.453785698461,503.24360244112336 L390.55014602717256,504.0634049916114 M390.55014602717256,504.0634049916114 L352.86020516493187,501.608651607015 M352.86020516493187,501.608651607015 L316.23269123402355,495.93505712533545 M316.23269123402355,495.93505712533545 L281.4917848693075,487.17137056819433 M281.4917848693075,487.17137056819433 L249.41827878991222,475.51628784615036 M249.41827878991222,475.51628784615036 L220.73159433918525,461.23379188734" stroke="black"  stroke-width="4"  fill="red"/></svg>